# This file uses centimeters as units for non-parametric coordinates.

v 3.500000 0.067996 -0.000000
v 3.233578 0.067996 -1.339392
v 2.474873 0.067996 -2.474874
v 1.339391 0.067996 -3.233578
v -0.000001 0.067996 -3.500000
v -1.339393 0.067996 -3.233577
v -2.474874 0.067996 -2.474873
v -3.233578 0.067996 -1.339391
v -3.499999 0.067996 0.000001
v -3.233577 0.067996 1.339393
v -2.474872 0.067996 2.474874
v -1.339390 0.067996 3.233578
v 0.000002 0.067996 3.499999
v 1.339393 0.067996 3.233577
v 2.474874 0.067996 2.474872
v 3.233578 0.067996 1.339390
v 3.500000 1.417996 0.000000
v 3.233578 1.417996 -1.339392
v 2.474873 1.417996 -2.474874
v 1.339391 1.417996 -3.233578
v -0.000001 1.417996 -3.500000
v -1.339393 1.417996 -3.233577
v -2.474874 1.417996 -2.474873
v -3.233578 1.417996 -1.339391
v -3.499999 1.417996 0.000001
v -3.233577 1.417996 1.339393
v -2.474872 1.417996 2.474874
v -1.339390 1.417996 3.233578
v 0.000002 1.417996 3.499999
v 1.339393 1.417996 3.233577
v 2.474874 1.417996 2.474872
v 3.233578 1.417996 1.339390
v 5.100000 1.417996 0.000000
v 4.711785 1.417996 -1.951686
v 3.469852 1.417996 -3.995136
v 1.951685 1.417996 -4.711785
v -0.000001 1.417996 -5.099999
v -1.951686 1.417996 -4.711784
v -3.606245 1.417996 -3.962758
v -4.711785 1.417996 -1.951684
v -5.099998 1.417996 0.000002
v -4.711783 1.417996 1.951687
v -3.606242 1.417996 3.985314
v -1.951683 1.417996 4.711785
v 0.000002 1.417996 5.099998
v 1.951687 1.417996 4.711783
v 3.510569 1.417996 3.978316
v 4.711785 1.417996 1.951682
v 5.100000 0.067996 -0.000000
v 4.711785 0.067996 -1.951686
v 3.469852 0.067996 -3.995136
v 1.951685 0.067996 -4.711785
v -0.000001 0.067996 -5.099999
v -1.951686 0.067996 -4.711784
v -3.606245 0.067996 -3.962758
v -4.711785 0.067996 -1.951684
v -5.099998 0.067996 0.000002
v -4.711783 0.067996 1.951687
v -3.606242 0.067996 3.985314
v -1.951683 0.067996 4.711785
v 0.000002 0.067996 5.099998
v 1.951687 0.067996 4.711783
v 3.510569 0.067996 3.978316
v 4.711785 0.067996 1.951682
v 6.470295 1.417996 0.000001
v 6.466097 1.417996 -2.678346
v 6.470295 0.067996 0.000001
v 6.466097 0.067996 -2.678346
v 5.019146 1.417996 -3.284502
v 5.019146 0.067996 -3.284502
v 4.924338 1.417996 3.348470
v 6.466097 1.417996 2.678342
v 4.924338 0.067996 3.348470
v 6.466097 0.067996 2.678342
v -4.992812 1.417996 -3.344716
v -6.472918 1.417996 -2.692539
v -4.992812 0.067996 -3.344716
v -6.472918 0.067996 -2.692539
v -6.482012 1.417996 0.000002
v -6.482012 0.067996 0.000002
v -6.472915 1.417996 2.692544
v -6.472915 0.067996 2.692544
v -5.015809 1.417996 3.334014
v -5.015809 0.067996 3.334014
vn -0.923880 0.000000 0.382684
vn -1.000000 0.000000 -0.000000
vn -0.923880 0.000000 0.382684
vn -1.000000 0.000000 -0.000000
vn -0.707107 0.000000 0.707107
vn -0.707107 0.000000 0.707107
vn -0.382683 0.000000 0.923880
vn -0.382683 0.000000 0.923880
vn 0.000000 0.000000 1.000000
vn 0.000000 0.000000 1.000000
vn 0.382684 0.000000 0.923880
vn 0.382684 0.000000 0.923880
vn 0.707107 0.000000 0.707107
vn 0.707107 0.000000 0.707107
vn 0.923880 0.000000 0.382683
vn 0.923880 0.000000 0.382683
vn 1.000000 0.000000 -0.000000
vn 1.000000 0.000000 -0.000000
vn 0.923879 0.000000 -0.382684
vn 0.923879 0.000000 -0.382684
vn 0.707106 0.000000 -0.707107
vn 0.707106 0.000000 -0.707107
vn 0.382683 0.000000 -0.923880
vn 0.382683 0.000000 -0.923880
vn -0.000001 0.000000 -1.000000
vn -0.000000 0.000000 -1.000000
vn -0.382684 0.000000 -0.923879
vn -0.382684 0.000000 -0.923880
vn -0.707107 0.000000 -0.707106
vn -0.707107 0.000000 -0.707106
vn -0.923879 0.000000 -0.382684
vn -0.923880 0.000000 -0.382684
vn 0.000000 1.000000 0.000000
vn 0.000000 1.000000 0.000000
vn 0.000000 1.000000 0.000000
vn 0.000000 1.000000 -0.000000
vn 0.000000 1.000000 0.000000
vn 0.000000 1.000000 0.000000
vn 0.000000 1.000000 -0.000000
vn 0.000000 1.000000 -0.000000
vn 0.000000 1.000000 -0.000000
vn 0.000000 1.000000 -0.000000
vn 0.000000 1.000000 0.000000
vn 0.000000 1.000000 -0.000000
vn 0.000000 1.000000 0.000000
vn 0.000000 1.000000 -0.000000
vn 0.000000 1.000000 0.000000
vn 0.000000 1.000000 0.000000
vn 0.000000 1.000000 0.000000
vn 0.000000 1.000000 0.000000
vn 0.000000 1.000000 0.000000
vn 0.000000 1.000000 -0.000000
vn 0.000000 1.000000 -0.000000
vn 0.000000 1.000000 -0.000000
vn 0.000000 1.000000 0.000000
vn 0.000000 1.000000 0.000000
vn 0.000000 1.000000 -0.000000
vn 0.000000 1.000000 0.000000
vn 0.000000 1.000000 -0.000000
vn 0.000000 1.000000 -0.000000
vn 0.000000 1.000000 0.000000
vn 0.000000 1.000000 0.000000
vn 0.000000 1.000000 -0.000000
vn 0.000000 1.000000 0.000000
vn 0.914701 0.000000 -0.404131
vn 1.000000 0.000000 0.000000
vn 0.914701 0.000000 -0.404131
vn 1.000000 0.000000 0.000000
vn 0.386386 0.000000 -0.922337
vn 0.386386 0.000000 -0.922337
vn 0.303408 0.000000 -0.952861
vn 0.426878 0.000000 -0.904309
vn 0.303408 0.000000 -0.952861
vn 0.426878 0.000000 -0.904309
vn -0.000000 0.000000 -1.000000
vn -0.000000 0.000000 -1.000000
vn -0.300753 0.000000 -0.953702
vn -0.300753 0.000000 -0.953702
vn -0.412413 0.000000 -0.910997
vn -0.412413 0.000000 -0.910997
vn -0.913542 0.000000 -0.406745
vn -0.403220 0.000000 -0.915103
vn -0.913542 0.000000 -0.406745
vn -0.403220 0.000000 -0.915103
vn -1.000000 0.000000 0.000001
vn -1.000000 0.000000 0.000001
vn -0.915392 0.000000 0.402563
vn -0.915392 0.000000 0.402563
vn -0.402919 0.000000 0.915236
vn -0.402919 0.000000 0.915235
vn -0.295313 0.000000 0.955401
vn -0.402027 0.000000 0.915628
vn -0.295313 0.000000 0.955401
vn -0.402027 0.000000 0.915628
vn 0.000001 0.000000 1.000000
vn 0.000001 0.000000 1.000000
vn 0.304357 0.000000 0.952558
vn 0.304357 0.000000 0.952558
vn 0.425738 0.000000 0.904846
vn 0.425738 0.000000 0.904847
vn 0.907907 0.000000 0.419172
vn 0.398625 0.000000 0.917114
vn 0.907907 0.000000 0.419172
vn 0.398625 0.000000 0.917114
vn 0.000000 -1.000000 0.000000
vn 0.000000 -1.000000 -0.000000
vn 0.000000 -1.000000 0.000000
vn 0.000000 -1.000000 0.000000
vn 0.000000 -1.000000 0.000000
vn 0.000000 -1.000000 0.000000
vn 0.000000 -1.000000 -0.000000
vn 0.000000 -1.000000 -0.000000
vn 0.000000 -1.000000 0.000000
vn 0.000000 -1.000000 0.000000
vn 0.000000 -1.000000 0.000000
vn 0.000000 -1.000000 0.000000
vn 0.000000 -1.000000 -0.000000
vn 0.000000 -1.000000 0.000000
vn 0.000000 -1.000000 0.000000
vn 0.000000 -1.000000 0.000000
vn 0.000000 -1.000000 0.000000
vn 0.000000 -1.000000 0.000000
vn 0.000000 -1.000000 0.000000
vn 0.000000 -1.000000 0.000000
vn 0.000000 -1.000000 -0.000000
vn 0.000000 -1.000000 -0.000000
vn 0.000000 -1.000000 0.000000
vn 0.000000 -1.000000 0.000000
vn 0.000000 -1.000000 -0.000000
vn 0.000000 -1.000000 0.000000
vn 0.000000 -1.000000 -0.000000
vn 0.000000 -1.000000 -0.000000
vn 0.000000 -1.000000 0.000000
vn 0.000000 -1.000000 0.000000
vn 0.000000 -1.000000 0.000000
vn 0.000000 -1.000000 -0.000000
vn 0.000000 1.000000 0.000000
vn 0.000000 1.000000 0.000000
vn 0.000000 -1.000000 0.000000
vn 0.000000 -1.000000 0.000000
vn 0.000000 1.000000 0.000000
vn 0.000000 -1.000000 0.000000
vn 0.416917 0.000000 -0.908944
vn 0.416917 0.000000 -0.908945
vn 0.416917 0.000000 -0.908945
vn 0.416917 0.000000 -0.908945
vn 0.000000 1.000000 0.000000
vn 0.000000 1.000000 0.000000
vn 0.406950 0.000000 0.913450
vn 0.406950 0.000000 0.913450
vn 0.406950 0.000000 0.913450
vn 0.406950 0.000000 0.913451
vn 0.000000 -1.000000 -0.000000
vn 0.000000 -1.000000 0.000000
vn 0.000000 1.000000 0.000000
vn 0.000000 1.000000 -0.000000
vn -0.407123 0.000000 -0.913373
vn -0.407123 0.000000 -0.913373
vn -0.407123 0.000000 -0.913373
vn -0.407123 0.000000 -0.913373
vn 0.000000 -1.000000 0.000000
vn 0.000000 -1.000000 0.000000
vn 0.000000 1.000000 -0.000000
vn 0.000000 -1.000000 -0.000000
vn 0.000000 1.000000 0.000000
vn 0.000000 -1.000000 0.000000
vn 0.000000 1.000000 0.000000
vn 0.000000 -1.000000 0.000000
vn -0.419446 0.000000 0.907780
vn -0.419446 0.000000 0.907780
vn -0.419446 0.000000 0.907780
vn -0.419446 0.000000 0.907780
f 2/2/1 1/1/2 18/19/3
f 18/19/3 1/1/2 17/18/4
f 3/3/5 2/2/1 19/20/6
f 19/20/6 2/2/1 18/19/3
f 4/4/7 3/3/5 20/21/8
f 20/21/8 3/3/5 19/20/6
f 5/5/9 4/4/7 21/22/10
f 21/22/10 4/4/7 20/21/8
f 6/6/11 5/5/9 22/23/12
f 22/23/12 5/5/9 21/22/10
f 7/7/13 6/6/11 23/24/14
f 23/24/14 6/6/11 22/23/12
f 8/8/15 7/7/13 24/25/16
f 24/25/16 7/7/13 23/24/14
f 9/9/17 8/8/15 25/26/18
f 25/26/18 8/8/15 24/25/16
f 10/10/19 9/9/17 26/27/20
f 26/27/20 9/9/17 25/26/18
f 11/11/21 10/10/19 27/28/22
f 27/28/22 10/10/19 26/27/20
f 12/12/23 11/11/21 28/29/24
f 28/29/24 11/11/21 27/28/22
f 13/13/25 12/12/23 29/30/26
f 29/30/26 12/12/23 28/29/24
f 14/14/27 13/13/25 30/31/28
f 30/31/28 13/13/25 29/30/26
f 15/15/29 14/14/27 31/32/30
f 31/32/30 14/14/27 30/31/28
f 16/16/31 15/15/29 32/33/32
f 32/33/32 15/15/29 31/32/30
f 1/17/2 16/16/31 17/34/4
f 17/34/4 16/16/31 32/33/32
f 18/19/33 17/18/34 34/36/35
f 34/36/35 17/18/34 33/35/36
f 18/19/33 34/36/35 19/20/37
f 19/20/37 34/36/35 35/37/38
f 19/20/37 35/37/38 20/21/39
f 20/21/39 35/37/38 36/38/40
f 21/22/41 20/21/39 37/39/42
f 37/39/42 20/21/39 36/38/40
f 22/23/43 21/22/41 38/40/44
f 38/40/44 21/22/41 37/39/42
f 22/23/43 38/40/44 23/24/45
f 23/24/45 38/40/44 39/41/46
f 24/25/47 23/24/45 40/42/48
f 40/42/48 23/24/45 39/41/46
f 25/26/49 24/25/47 41/43/50
f 41/43/50 24/25/47 40/42/48
f 26/27/51 25/26/49 42/44/52
f 42/44/52 25/26/49 41/43/50
f 26/27/51 42/44/52 27/28/53
f 27/28/53 42/44/52 43/45/54
f 28/29/55 27/28/53 44/46/56
f 44/46/56 27/28/53 43/45/54
f 29/30/57 28/29/55 45/47/58
f 45/47/58 28/29/55 44/46/56
f 30/31/59 29/30/57 46/48/60
f 46/48/60 29/30/57 45/47/58
f 31/32/61 30/31/59 47/49/62
f 47/49/62 30/31/59 46/48/60
f 32/33/63 31/32/61 48/50/64
f 48/50/64 31/32/61 47/49/62
f 17/34/34 32/33/63 33/51/36
f 33/51/36 32/33/63 48/50/64
f 66/86/65 65/87/66 68/89/67
f 68/89/67 65/87/66 67/88/68
f 69/90/69 66/86/65 70/91/70
f 70/91/70 66/86/65 68/89/67
f 36/38/71 35/37/72 52/55/73
f 52/55/73 35/37/72 51/54/74
f 37/39/75 36/38/71 53/56/76
f 53/56/76 36/38/71 52/55/73
f 38/40/77 37/39/75 54/57/78
f 54/57/78 37/39/75 53/56/76
f 39/41/79 38/40/77 55/58/80
f 55/58/80 38/40/77 54/57/78
f 76/98/81 75/99/82 78/101/83
f 78/101/83 75/99/82 77/100/84
f 79/102/85 76/98/81 80/103/86
f 80/103/86 76/98/81 78/101/83
f 81/104/87 79/102/85 82/105/88
f 82/105/88 79/102/85 80/103/86
f 83/106/89 81/104/87 84/107/90
f 84/107/90 81/104/87 82/105/88
f 44/46/91 43/45/92 60/63/93
f 60/63/93 43/45/92 59/62/94
f 45/47/95 44/46/91 61/64/96
f 61/64/96 44/46/91 60/63/93
f 46/48/97 45/47/95 62/65/98
f 62/65/98 45/47/95 61/64/96
f 47/49/99 46/48/97 63/66/100
f 63/66/100 46/48/97 62/65/98
f 72/92/101 71/93/102 74/95/103
f 74/95/103 71/93/102 73/94/104
f 65/96/66 72/92/101 67/97/68
f 67/97/68 72/92/101 74/95/103
f 50/53/105 49/52/106 2/70/107
f 2/70/107 49/52/106 1/69/108
f 51/54/109 50/53/105 3/71/110
f 3/71/110 50/53/105 2/70/107
f 52/55/111 51/54/109 4/72/112
f 4/72/112 51/54/109 3/71/110
f 53/56/113 52/55/111 5/73/114
f 5/73/114 52/55/111 4/72/112
f 54/57/115 53/56/113 6/74/116
f 6/74/116 53/56/113 5/73/114
f 55/58/117 54/57/115 7/75/118
f 7/75/118 54/57/115 6/74/116
f 55/58/117 7/75/118 56/59/119
f 56/59/119 7/75/118 8/76/120
f 57/60/121 56/59/119 9/77/122
f 9/77/122 56/59/119 8/76/120
f 58/61/123 57/60/121 10/78/124
f 10/78/124 57/60/121 9/77/122
f 59/62/125 58/61/123 11/79/126
f 11/79/126 58/61/123 10/78/124
f 59/62/125 11/79/126 60/63/127
f 60/63/127 11/79/126 12/80/128
f 61/64/129 60/63/127 13/81/130
f 13/81/130 60/63/127 12/80/128
f 62/65/131 61/64/129 14/82/132
f 14/82/132 61/64/129 13/81/130
f 62/65/131 14/82/132 63/66/133
f 63/66/133 14/82/132 15/83/134
f 63/66/133 15/83/134 64/67/135
f 64/67/135 15/83/134 16/84/136
f 49/68/106 64/67/135 1/85/108
f 1/85/108 64/67/135 16/84/136
f 33/35/36 65/87/137 34/36/35
f 34/36/35 65/87/137 66/86/138
f 49/52/106 50/53/105 67/88/139
f 67/88/139 50/53/105 68/89/140
f 35/37/38 34/36/35 69/90/141
f 69/90/141 34/36/35 66/86/138
f 51/54/109 70/91/142 50/53/105
f 50/53/105 70/91/142 68/89/140
f 51/54/143 35/37/144 70/91/145
f 70/91/145 35/37/144 69/90/146
f 47/49/62 71/93/147 48/50/64
f 48/50/64 71/93/147 72/92/148
f 47/49/149 63/66/150 71/93/151
f 71/93/151 63/66/150 73/94/152
f 63/66/133 64/67/135 73/94/153
f 73/94/153 64/67/135 74/95/154
f 33/51/36 48/50/64 65/96/137
f 65/96/137 48/50/64 72/92/148
f 49/68/106 67/97/139 64/67/135
f 64/67/135 67/97/139 74/95/154
f 39/41/46 75/99/155 40/42/48
f 40/42/48 75/99/155 76/98/156
f 39/41/157 55/58/158 75/99/159
f 75/99/159 55/58/158 77/100/160
f 55/58/117 56/59/119 77/100/161
f 77/100/161 56/59/119 78/101/162
f 41/43/50 40/42/48 79/102/163
f 79/102/163 40/42/48 76/98/156
f 57/60/121 80/103/164 56/59/119
f 56/59/119 80/103/164 78/101/162
f 41/43/50 79/102/163 42/44/52
f 42/44/52 79/102/163 81/104/165
f 57/60/121 58/61/123 80/103/164
f 80/103/164 58/61/123 82/105/166
f 43/45/54 42/44/52 83/106/167
f 83/106/167 42/44/52 81/104/165
f 59/62/125 84/107/168 58/61/123
f 58/61/123 84/107/168 82/105/166
f 59/62/169 43/45/170 84/107/171
f 84/107/171 43/45/170 83/106/172